<svg xmlns="http://www.w3.org/2000/svg" viewBox="184.181 203.721 144.155 88.09" xmlns:bx="https://boxy-svg.com">
  <g transform="matrix(1, 0, 0, 1, 220.521057, -14.518996)">
    <bx:title>Cyberpath</bx:title>
    <path d="M 0.06 288.52 Q -6.87 288.52 -12.405 285.55 Q -17.94 282.58 -21.135 276.775 Q -24.33 270.97 -24.33 262.33 Q -24.33 253.6 -21.18 247.75 Q -18.03 241.9 -12.405 238.975 Q -6.78 236.05 0.42 236.05 Q 6.36 236.05 10.95 238.21 Q 15.54 240.37 18.645 244.465 Q 21.75 248.56 22.83 254.5 L 18.6 254.5 Q 17.7 249.73 15.135 246.445 Q 12.57 243.16 8.835 241.495 Q 5.1 239.83 0.42 239.83 Q -9.12 239.83 -14.655 245.59 Q -20.19 251.35 -20.19 262.15 Q -20.19 273.31 -14.745 279.025 Q -9.3 284.74 0.06 284.74 Q 5.19 284.74 9.15 283.03 Q 13.11 281.32 15.585 278.08 Q 18.06 274.84 18.87 270.16 L 23.28 270.16 Q 22.2 276.01 19.14 280.105 Q 16.08 284.2 11.265 286.36 Q 6.45 288.52 0.06 288.52 Z" style="text-wrap-mode: nowrap; fill: rgb(255, 255, 255);"></path>
  </g>
  <g transform="matrix(1, 0, 0, 1, -83.174065, -15.371276)">
    <bx:title>Orbis+dot</bx:title>
    <g transform="matrix(1, 0, 0, 1, -2.237426, 0.672278)">
      <bx:title>Orbis</bx:title>
      <path d="M 360.473 288.88 Q 348.233 288.88 341.753 281.725 Q 335.273 274.57 335.273 262.42 Q 335.273 254.41 338.063 248.515 Q 340.853 242.62 346.478 239.335 Q 352.103 236.05 360.473 236.05 Q 372.803 236.05 379.238 243.205 Q 385.673 250.36 385.673 262.42 Q 385.673 270.25 382.793 276.235 Q 379.913 282.22 374.333 285.55 Q 368.753 288.88 360.473 288.88 Z M 360.383 280.06 Q 365.873 280.06 369.473 277.765 Q 373.073 275.47 374.873 271.465 Q 376.673 267.46 376.673 262.42 Q 376.673 257.29 374.873 253.285 Q 373.073 249.28 369.473 246.985 Q 365.873 244.69 360.383 244.69 Q 352.463 244.69 348.323 249.55 Q 344.183 254.41 344.183 262.42 Q 344.183 267.37 345.938 271.375 Q 347.693 275.38 351.293 277.72 Q 354.893 280.06 360.383 280.06 Z" style="text-wrap-mode: nowrap; fill: rgb(255, 255, 255);"></path>
    </g>
    <path d="M 394.19 289.552 C 392.03 289.552 390.575 289.012 389.825 287.932 C 389.075 286.852 388.7 285.532 388.7 283.972 C 388.7 282.532 389.075 281.272 389.825 280.192 C 390.575 279.112 392.03 278.572 394.19 278.572 C 396.23 278.572 397.625 279.112 398.375 280.192 C 399.125 281.272 399.5 282.532 399.5 283.972 C 399.5 285.532 399.125 286.852 398.375 287.932 C 397.625 289.012 396.23 289.552 394.19 289.552 Z" style="text-wrap-mode: nowrap; fill: rgb(255, 65, 54);">
      <bx:title>Dot</bx:title>
    </path>
  </g>
  <defs>
    <style bx:fonts="Darker Grotesque">@import url(https://fonts.googleapis.com/css2?family=Darker+Grotesque%3Aital%2Cwght%400%2C300..900&amp;display=swap);</style>
  </defs>
</svg>