<svg xmlns="http://www.w3.org/2000/svg" viewBox="-44.994 194.091 606.395 107.505" xmlns:bx="https://boxy-svg.com">
  <g transform="matrix(1, 0, 0, 1, 3.97049, -22.001509)">
    <bx:title>Cyberpath</bx:title>
    <path d="M 0.06 288.52 Q -6.87 288.52 -12.405 285.55 Q -17.94 282.58 -21.135 276.775 Q -24.33 270.97 -24.33 262.33 Q -24.33 253.6 -21.18 247.75 Q -18.03 241.9 -12.405 238.975 Q -6.78 236.05 0.42 236.05 Q 6.36 236.05 10.95 238.21 Q 15.54 240.37 18.645 244.465 Q 21.75 248.56 22.83 254.5 L 18.6 254.5 Q 17.7 249.73 15.135 246.445 Q 12.57 243.16 8.835 241.495 Q 5.1 239.83 0.42 239.83 Q -9.12 239.83 -14.655 245.59 Q -20.19 251.35 -20.19 262.15 Q -20.19 273.31 -14.745 279.025 Q -9.3 284.74 0.06 284.74 Q 5.19 284.74 9.15 283.03 Q 13.11 281.32 15.585 278.08 Q 18.06 274.84 18.87 270.16 L 23.28 270.16 Q 22.2 276.01 19.14 280.105 Q 16.08 284.2 11.265 286.36 Q 6.45 288.52 0.06 288.52 Z" style="text-wrap-mode: nowrap;"></path>
    <path d="M 26.24 303.64 L 26.24 300.22 L 30.92 300.22 Q 32.18 300.22 32.99 299.77 Q 33.8 299.32 34.655 298.105 Q 35.51 296.89 36.59 294.55 L 41.09 284.74 L 26.78 251.08 L 31.1 251.08 L 43.25 280.24 L 56.12 251.08 L 60.53 251.08 L 40.19 295.27 Q 39.02 297.97 38.03 299.635 Q 37.04 301.3 36.05 302.2 Q 35.06 303.1 33.845 303.37 Q 32.63 303.64 31.1 303.64 Z" style="text-wrap-mode: nowrap;"></path>
    <path d="M 84.377 288.52 Q 80.777 288.52 78.257 287.26 Q 75.737 286 74.072 284.2 Q 72.407 282.4 71.552 280.825 Q 70.697 279.25 70.517 278.8 L 70.337 278.8 L 69.617 287.62 L 66.107 287.62 L 66.107 236.95 L 70.427 236.95 L 70.427 260.98 L 70.607 260.98 Q 70.787 260.35 71.552 258.775 Q 72.317 257.2 73.892 255.4 Q 75.467 253.6 78.032 252.34 Q 80.597 251.08 84.377 251.08 Q 89.597 251.08 93.242 253.555 Q 96.887 256.03 98.822 260.305 Q 100.757 264.58 100.757 269.8 Q 100.757 275.11 98.822 279.34 Q 96.887 283.57 93.242 286.045 Q 89.597 288.52 84.377 288.52 Z M 83.837 284.65 Q 88.337 284.65 91.172 282.535 Q 94.007 280.42 95.312 276.955 Q 96.617 273.49 96.617 269.8 Q 96.617 266.02 95.177 262.645 Q 93.737 259.27 90.767 257.155 Q 87.797 255.04 83.297 255.04 Q 79.697 255.04 76.817 256.795 Q 73.937 258.55 72.227 261.835 Q 70.517 265.12 70.517 269.8 Q 70.517 274.48 72.317 277.855 Q 74.117 281.23 77.132 282.94 Q 80.147 284.65 83.837 284.65 Z" style="text-wrap-mode: nowrap;"></path>
    <path d="M 123.522 288.52 Q 117.672 288.52 113.847 285.73 Q 110.022 282.94 108.132 278.575 Q 106.242 274.21 106.332 269.53 Q 106.332 264.67 108.312 260.44 Q 110.292 256.21 114.117 253.645 Q 117.942 251.08 123.432 251.08 Q 128.022 251.08 131.577 253.105 Q 135.132 255.13 137.292 258.775 Q 139.452 262.42 139.722 267.46 Q 139.812 267.91 139.812 268.54 Q 139.812 269.17 139.812 269.71 L 110.292 269.71 Q 110.292 276.64 113.757 280.78 Q 117.222 284.92 123.522 284.92 Q 128.112 284.92 131.487 282.49 Q 134.862 280.06 135.672 275.92 L 139.722 275.92 Q 139.092 279.61 136.842 282.445 Q 134.592 285.28 131.172 286.9 Q 127.752 288.52 123.522 288.52 Z M 110.562 267.01 L 135.582 267.01 Q 135.492 265.3 134.817 263.185 Q 134.142 261.07 132.702 259.09 Q 131.262 257.11 128.967 255.85 Q 126.672 254.59 123.432 254.59 Q 120.462 254.59 118.212 255.625 Q 115.962 256.66 114.387 258.37 Q 112.812 260.08 111.867 262.285 Q 110.922 264.49 110.562 267.01 Z" style="text-wrap-mode: nowrap;"></path>
    <path d="M 148.452 287.62 L 148.452 251.08 L 151.962 251.08 L 152.592 261.61 L 152.502 269.44 L 152.502 287.62 Z M 152.502 269.98 L 152.232 262.06 Q 152.412 259.9 153.357 257.92 Q 154.302 255.94 156.057 254.41 Q 157.812 252.88 160.287 251.98 Q 162.762 251.08 166.092 251.08 L 168.072 251.08 L 168.072 255.67 L 166.092 255.67 Q 161.502 255.67 158.757 256.795 Q 156.012 257.92 154.662 259.855 Q 153.312 261.79 152.907 264.4 Q 152.502 267.01 152.502 269.98 Z" style="text-wrap-mode: nowrap;"></path>
    <path d="M 192.006 288.52 Q 188.406 288.52 185.886 287.26 Q 183.366 286 181.746 284.2 Q 180.126 282.4 179.271 280.825 Q 178.416 279.25 178.146 278.8 L 177.966 278.8 L 177.966 302.02 L 173.826 302.02 L 173.826 251.08 L 177.336 251.08 L 178.056 260.98 L 178.236 260.98 Q 178.506 260.35 179.226 258.775 Q 179.946 257.2 181.521 255.4 Q 183.096 253.6 185.661 252.34 Q 188.226 251.08 191.916 251.08 Q 197.226 251.08 200.871 253.6 Q 204.516 256.12 206.451 260.35 Q 208.386 264.58 208.386 269.89 Q 208.386 275.2 206.406 279.43 Q 204.426 283.66 200.781 286.09 Q 197.136 288.52 192.006 288.52 Z M 191.556 284.65 Q 196.056 284.65 198.891 282.535 Q 201.726 280.42 203.031 276.955 Q 204.336 273.49 204.336 269.8 Q 204.336 266.02 202.896 262.645 Q 201.456 259.27 198.441 257.155 Q 195.426 255.04 190.926 255.04 Q 187.326 255.04 184.446 256.795 Q 181.566 258.55 179.901 261.835 Q 178.236 265.12 178.236 269.8 Q 178.236 274.48 180.036 277.855 Q 181.836 281.23 184.851 282.94 Q 187.866 284.65 191.556 284.65 Z" style="text-wrap-mode: nowrap;"></path>
    <path d="M 227.73 288.43 Q 222.69 288.43 219.36 285.91 Q 216.03 283.39 214.41 279.115 Q 212.79 274.84 212.79 269.62 Q 212.79 264.13 214.455 259.9 Q 216.12 255.67 219.495 253.195 Q 222.87 250.72 227.73 250.72 Q 230.43 250.72 232.5 251.44 Q 234.57 252.16 236.19 253.33 Q 237.81 254.5 238.935 255.985 Q 240.06 257.47 240.69 259.18 L 240.78 259.18 L 240.78 251.08 L 245.01 251.08 L 245.01 287.62 L 241.59 287.62 L 240.87 280.06 L 240.69 280.06 Q 239.97 281.68 238.845 283.165 Q 237.72 284.65 236.1 285.865 Q 234.48 287.08 232.41 287.755 Q 230.34 288.43 227.73 288.43 Z M 229.26 284.65 Q 233.13 284.65 235.695 282.85 Q 238.26 281.05 239.52 277.675 Q 240.78 274.3 240.78 269.71 Q 240.78 264.67 239.43 261.385 Q 238.08 258.1 235.515 256.39 Q 232.95 254.68 229.26 254.68 Q 225.03 254.68 222.285 256.66 Q 219.54 258.64 218.235 261.97 Q 216.93 265.3 216.93 269.62 Q 216.93 274.03 218.28 277.45 Q 219.63 280.87 222.375 282.76 Q 225.12 284.65 229.26 284.65 Z" style="text-wrap-mode: nowrap;"></path>
    <path d="M 259.674 287.62 Q 256.884 287.62 256.029 286 Q 255.174 284.38 255.174 282.13 L 255.174 253.69 L 259.134 253.69 L 259.134 284.11 L 267.684 284.11 L 267.684 287.62 Z M 249.144 254.41 L 249.144 251.08 Q 251.574 251.08 252.879 250.9 Q 254.184 250.72 254.679 249.865 Q 255.174 249.01 255.309 247.075 Q 255.444 245.14 255.444 241.63 L 259.134 241.63 L 259.134 251.08 L 267.684 251.08 L 267.684 254.41 Z" style="text-wrap-mode: nowrap;"></path>
    <path d="M 275.691 287.62 L 275.691 236.95 L 279.831 236.95 L 279.831 260.8 L 280.011 260.8 Q 280.191 260.17 280.911 258.64 Q 281.631 257.11 283.161 255.355 Q 284.691 253.6 287.166 252.34 Q 289.641 251.08 293.331 251.08 Q 297.111 251.08 299.631 252.16 Q 302.151 253.24 303.726 255.13 Q 305.301 257.02 306.111 259.405 Q 306.921 261.79 307.191 264.355 Q 307.461 266.92 307.461 269.53 L 307.461 287.62 L 303.501 287.62 L 303.501 269.53 Q 303.501 265.03 302.511 261.745 Q 301.521 258.46 299.181 256.66 Q 296.841 254.86 292.611 254.86 Q 288.291 254.86 285.456 257.02 Q 282.621 259.18 281.226 262.69 Q 279.831 266.2 279.831 270.34 L 279.831 287.62 Z" style="text-wrap-mode: nowrap;"></path>
  </g>
  <g transform="matrix(1, 0, 0, 1, 3.97049, -21.821501)">
    <bx:title>Orbis+dot</bx:title>
    <g>
      <bx:title>Orbis</bx:title>
      <path d="M 360.473 288.88 Q 348.233 288.88 341.753 281.725 Q 335.273 274.57 335.273 262.42 Q 335.273 254.41 338.063 248.515 Q 340.853 242.62 346.478 239.335 Q 352.103 236.05 360.473 236.05 Q 372.803 236.05 379.238 243.205 Q 385.673 250.36 385.673 262.42 Q 385.673 270.25 382.793 276.235 Q 379.913 282.22 374.333 285.55 Q 368.753 288.88 360.473 288.88 Z M 360.383 280.06 Q 365.873 280.06 369.473 277.765 Q 373.073 275.47 374.873 271.465 Q 376.673 267.46 376.673 262.42 Q 376.673 257.29 374.873 253.285 Q 373.073 249.28 369.473 246.985 Q 365.873 244.69 360.383 244.69 Q 352.463 244.69 348.323 249.55 Q 344.183 254.41 344.183 262.42 Q 344.183 267.37 345.938 271.375 Q 347.693 275.38 351.293 277.72 Q 354.893 280.06 360.383 280.06 Z" style="text-wrap-mode: nowrap;"></path>
      <path d="M 392.503 287.62 L 392.503 250.63 L 401.053 250.63 L 401.773 261.43 L 401.683 269.35 L 401.683 287.62 Z M 401.683 271.69 L 401.413 263.5 Q 401.413 261.61 402.133 259.405 Q 402.853 257.2 404.518 255.22 Q 406.183 253.24 408.883 251.935 Q 411.583 250.63 415.543 250.63 L 416.893 250.63 L 416.893 260.89 L 415.543 260.89 Q 411.673 260.89 408.973 261.475 Q 406.273 262.06 404.698 263.32 Q 403.123 264.58 402.403 266.65 Q 401.683 268.72 401.683 271.69 Z" style="text-wrap-mode: nowrap;"></path>
      <path d="M 445.059 288.52 Q 441.729 288.52 439.389 287.485 Q 437.049 286.45 435.564 285.01 Q 434.079 283.57 433.404 282.4 Q 432.729 281.23 432.639 281.05 L 432.459 281.05 L 430.929 287.62 L 423.009 287.62 L 423.009 236.95 L 432.459 236.95 L 432.459 258.73 L 432.639 258.73 Q 432.729 258.46 433.359 257.2 Q 433.989 255.94 435.384 254.41 Q 436.779 252.88 439.164 251.755 Q 441.549 250.63 445.059 250.63 Q 450.549 250.63 453.879 253.015 Q 457.209 255.4 458.784 259.675 Q 460.359 263.95 460.359 269.8 Q 460.359 275.38 458.829 279.61 Q 457.299 283.84 453.924 286.18 Q 450.549 288.52 445.059 288.52 Z M 442.089 280.78 Q 445.779 280.78 447.804 279.205 Q 449.829 277.63 450.594 275.065 Q 451.359 272.5 451.359 269.71 Q 451.359 266.92 450.549 264.4 Q 449.739 261.88 447.669 260.35 Q 445.599 258.82 441.819 258.82 Q 438.489 258.82 436.419 260.215 Q 434.349 261.61 433.449 264.085 Q 432.549 266.56 432.549 269.71 Q 432.549 272.95 433.494 275.425 Q 434.439 277.9 436.554 279.34 Q 438.669 280.78 442.089 280.78 Z" style="text-wrap-mode: nowrap;"></path>
      <path d="M 468.002 287.62 L 468.002 250.63 L 477.182 250.63 L 477.182 287.62 Z M 472.592 245.86 Q 469.622 245.86 468.587 244.33 Q 467.552 242.8 467.552 240.82 Q 467.552 238.84 468.587 237.355 Q 469.622 235.87 472.592 235.87 Q 475.652 235.87 476.597 237.355 Q 477.542 238.84 477.542 240.82 Q 477.542 242.8 476.597 244.33 Q 475.652 245.86 472.592 245.86 Z" style="text-wrap-mode: nowrap;"></path>
      <path d="M 500.669 288.52 Q 498.779 288.52 496.529 288.025 Q 494.279 287.53 492.029 286.495 Q 489.779 285.46 487.934 283.84 Q 486.089 282.22 485.009 280.06 Q 483.929 277.9 483.929 275.02 L 492.389 275.02 Q 492.389 275.11 492.524 276.19 Q 492.659 277.27 493.379 278.575 Q 494.099 279.88 495.719 280.87 Q 497.339 281.86 500.399 281.86 Q 502.829 281.86 504.359 281.23 Q 505.889 280.6 506.654 279.655 Q 507.419 278.71 507.419 277.54 Q 507.419 275.56 505.754 274.435 Q 504.089 273.31 501.479 272.59 Q 498.869 271.87 495.944 271.105 Q 493.019 270.34 490.454 269.08 Q 487.889 267.82 486.269 265.615 Q 484.649 263.41 484.649 259.9 Q 484.649 254.68 488.789 252.07 Q 492.929 249.46 499.319 249.46 Q 502.739 249.46 505.754 250.225 Q 508.769 250.99 511.109 252.655 Q 513.449 254.32 514.844 256.885 Q 516.239 259.45 516.239 263.14 L 507.779 263.14 Q 507.869 261.07 507.104 259.765 Q 506.339 258.46 505.079 257.74 Q 503.819 257.02 502.379 256.75 Q 500.939 256.48 499.589 256.48 Q 496.349 256.48 494.684 257.605 Q 493.019 258.73 493.019 260.53 Q 493.019 262.6 494.684 263.725 Q 496.349 264.85 499.004 265.57 Q 501.659 266.29 504.629 267.055 Q 507.599 267.82 510.209 269.08 Q 512.819 270.34 514.484 272.455 Q 516.149 274.57 516.149 278.08 Q 516.149 281.59 514.214 283.885 Q 512.279 286.18 508.814 287.35 Q 505.349 288.52 500.669 288.52 Z" style="text-wrap-mode: nowrap;"></path>
    </g>
    <path d="M 527.486 287.62 Q 524.246 287.62 523.121 286 Q 521.996 284.38 521.996 282.04 Q 521.996 279.88 523.121 278.26 Q 524.246 276.64 527.486 276.64 Q 530.546 276.64 531.671 278.26 Q 532.796 279.88 532.796 282.04 Q 532.796 284.38 531.671 286 Q 530.546 287.62 527.486 287.62 Z" style="text-wrap-mode: nowrap; fill: rgb(255, 65, 54);">
      <bx:title>Dot</bx:title>
    </path>
  </g>
  <defs>
    <style bx:fonts="Darker Grotesque">@import url(https://fonts.googleapis.com/css2?family=Darker+Grotesque%3Aital%2Cwght%400%2C300..900&amp;display=swap);</style>
  </defs>
</svg>